<?xml version="1.0" encoding="UTF-8"?><svg id="a" xmlns="http://www.w3.org/2000/svg" viewBox="-2.39 -3.56 482.78 718.72"><defs><style>.b{fill:#b0342b;}.c{fill:#aa2f27;}.d{fill:#b52423;}.e{fill:#b13029;}.f{fill:#ae0102;}.g{fill:#b52624;}.h{fill:#b72827;}.i{fill:#cc6665;}.j{fill:#b82e2c;}.k{fill:#a7392c;}.l{fill:#ab2e27;}.m{fill:#cd2427;}.n{fill:#ae3028;}.o{fill:#a93128;}.p{fill:#b52322;}.q{fill:#ce2227;}.r{fill:#b62827;}.s{fill:#b21211;}.t{fill:#b52928;}.u{fill:#b42524;}.v{fill:#b42322;}.w{fill:#cd2227;}.x{fill:#a90505;}.y{fill:#b42221;}.z{fill:#b32624;}.aa{fill:#d27e7c;}.ab{fill:#d88d8b;}.ac{fill:#b82b27;}.ad{fill:#a93028;}.ae{fill:#b6332b;}.af{fill:#aa3229;}.ag{fill:#ac2f28;}.ah{fill:#b2211f;}.ai{fill:#ab2f28;}.aj{fill:#b52524;}.ak{fill:#ce6d6c;}.al{fill:#b42422;}.am{fill:#ae3129;}.an{fill:#ce2327;}.ao{fill:#ae120f;}.ap{fill:#b32423;}</style></defs><path class="n" d="M85.92,144.42l-1.13-2.5,2.03-10.68c2.89-15.19,8.81-29.03,16.78-42.54,16.81-28.52,43.28-50.66,75.11-62.93,22.9-8.84,48.41-11.79,72.96-9.04,54.7,6.13,101.6,41.46,119.85,91.3,4.5,12.3,8.72,25.78,8.73,39.3l.18,354.33c0,2.91,0,6.06,1.88,7.63,2.46,2.06,5.86,2.08,8.3,1.01,2.94-1.3,3.55-3.88,3.55-7.45l-.02-354.25-1.03-13.04c-9.51-66.98-61.27-120.18-131.15-131.82l-14.72-1.83c-9-1.12-17.79-1.13-26.78-.02l-15.32,1.89c-24.7,4.22-47.74,13.73-67.81,28.22l-13.63,10.73c-.44.35-1.7.66-2.19.66,1.77-2.39,4.32-4.01,6.58-5.85C153.7,16.56,185.05,3.15,218.7.75l7.34-.52c4.31-.3,8.19-.3,12.49-.05l9.12.54c35.87,2.96,69.05,16.74,95.52,39.94l9.03,8.46c25.55,27.28,42.9,63.12,42.93,100.58l.28,344.76-.23,5.66c-.08,1.95.29,4.97-.16,6.73-1.01,3.96-5.09,5.39-8.71,5.11-2.61-.2-7.14-2.44-7.14-6.2l-.08-358.87c-4.1-48.18-31.11-90.16-75.48-113.29-18.38-9.58-38.46-15.19-59.53-16.39h-21.17l-5.69.41c-9.48.68-18.35,2.77-27.43,5.5-29.59,8.92-55.33,26.26-73.96,49.86-6.49,8.23-12.12,16.3-16.4,25.64l-4.4,9.59c-4.59,11.65-7.9,23.78-9.13,36.18h.02s0,0,0,0Z"/><path class="ag" d="M84.21,151c.33-1.26.62-2.61.61-4.12l-.03-4.96,1.13,2.5-1.02,10.22-.76.4v66.73s.64.68.64.68v8.36l-.63.76v174.59l.63.76v10.75l-.63.68v67.29l.63.79v.48c-.17-.35-.63,1.04-.63,1.4v11.56c0,.32.46,1.71.64,1.37v1.21l-.07,3.18c-.1,4.05-4.05,6.3-7.88,6.42-2.9.09-8.33-2.1-8.32-6.26l.33-353.97c.04-38.57,22.74-83.13,52.65-108.43-.08.84-.44,1.65-1.18,2.36-14.76,14.12-27.12,29.76-35.67,48.3-7.98,17.3-14.57,36.43-14.59,55.85l-.31,356.4c0,3.14,4.53,4.55,6.62,4.71,2.51.19,5.95-1.23,7.14-4.11V158.17c0-2.81.09-4.9.69-7.17h-.02s0,0,0,0Z"/><path class="l" d="M308.43,413.72c-8.02,15.17-17.66,28.99-29.2,41.57l-4.11,4.48-9.4,8.88c-5.46,5.16-11.82,9.09-18.99,11.61-16.62,5.84-35.3.82-47.56-10.71l-11.96-11.24-3.29-3.53c-17.38-20.62-31.71-43.33-41.56-68.17-5.09-12.84-8.66-25.34-9.79-38.99-1.49-18.07.92-36.84,12.4-51.56,7.92-10.14,19.34-16.6,32.6-18.36,4.03-.54,8.69-.76,12.74-.1l10.64,1.74,20.38,3.15c7.15,1.11,14.61.48,21.86,0l18.59-3.07,11.33-1.78c4.17-.66,9-.5,13.21.06,27.64,3.64,42.43,25.97,45,51.27v19.2l-.47,4.45c-1.91,17.72-8.27,34.3-16.61,50.08l-5.82,11.02h0ZM307.87,412.22c8.33-14.8,14.64-29.89,19.04-46.18l2.74-14.09.67-6.49-.07-14.98-1.9-11.29c-1.22-7.27-4.58-13.99-8.76-20.16-6.7-9.9-16.93-16.84-28.93-19.43-10.71-2.32-20.95-.14-31.58,1.67l-14.27,2.43c-15.23,1.49-29.69.13-44.49-3.3-9.53-2.2-19.59-2.98-28.86-.34-14.06,4-25.08,12.85-30.96,25.5-2.18,4.68-4.02,9.18-5.1,14.33-3.98,19.02-1.76,38.3,4.66,56.9,9.98,28.93,25.86,55.38,46.18,78.82l13.79,13.14c15.1,14.39,39.06,17.63,57.14,4.96,7.76-5.44,14.39-11.46,20.63-18.6,11.65-13.33,21.43-27.51,30.07-42.88h0Z"/><path class="ad" d="M231.61,164.28c-2.43-3.78-.68-26.5-17.84-36.51-3.69-2.15-8.42-3.99-12.82-4.8l-9.52-1.75c-.13-.33-.19-1.25.08-1.42.37-.22,1.31-.5,1.92-.65l14.03-3.38c2.97-.71,5.56-2.62,8.21-4.15,3.62-2.1,5.9-5.51,8.05-9.05,4.14-7.75,6.1-15.93,7.12-24.69l1.29-1.74c.35-.47,1.22,1.27,1.3,1.83,1.56,11.61,5.32,27.01,15.05,33.34,4.66,3.03,9.5,5.16,14.9,6.23l9.4,1.88c.08.07.24,1.42-.11,1.53l-2.09.68c-13.28,2.21-23.91,5.4-30.63,17.49-3.82,7.86-5.8,16.29-6.76,24.97-.54.17-1.39.44-1.56.17h0s0,.01,0,.01ZM232.16,160.05c1.64-6.69,2.63-12.14,5.04-17.68,6.32-14.53,15.42-17.97,31.4-22.08-8.07-2.24-15.42-3.72-21.65-8.6-4.88-3.83-8.37-8.87-10.26-14.62l-2.97-9.03c-.8-2.46-.04-5.38-1.94-7.39-3.16,18.85-7.88,31.66-27.17,37.24l-8.68,2.52,9.38,2.56c10.01,2.74,19.02,9.94,22.02,19.23l2.52,7.81,2.31,10.04h0s0,0,0,0Z"/><path class="c" d="M223.18,270.6c-1.39,1.91-11.13,2.37-17.18,1.55l-6.16-.83c-18.31-2.48-36.67-16.91-39.92-34.51-.34-1.81,2.3-2.61,4-2.78,14.85-1.43,29.39,3.19,41.12,12.09,7.29,5.53,12.45,12.52,16.9,20.28.6,1.04,2.12,3.02,1.25,4.21h0ZM210.41,271.19l11.98-.96c-11.15-23.65-33.4-37.98-61.32-34.4.41,4.03,1.82,7.48,3.86,10.95,6.2,10.56,16.35,18.39,28.48,21.87,5.62,1.61,10.88,3.03,16.99,2.54h0s0,0,0,0Z"/><path class="af" d="M288.45,260.54c-12.65,9.71-28.33,13.38-44.32,11.54-1.79-.2-3.21-.66-4.62-1.73l6.78-10.72c10.93-17.29,32.61-27.72,54.41-25.59,1.21.12,2.99,1.2,3.53,2.22-2.04,9.64-7.84,18.17-15.79,24.27h0s0,0,0,0ZM269.28,268.98l7.64-2.71c21.77-9.89,27.73-30.25,24.98-30.55l-2.7-.29c-14.47-1.54-31.59,3.73-41.41,13.2l-6.15,5.94c-4.01,4.98-7.39,9.96-10.28,15.63,9.69,1.7,18.9,1.95,27.91-1.23h.01s0,0,0,0Z"/><path class="ai" d="M291.43,183.99c-5.42,5.14-5.24,14.13-5.83,14.38l-1.48.64-1.2-5.83c-1.28-7.68-7.46-13.04-15.78-13.52l-1.64-1.19c-.46-.33,1.13-1.49,1.73-1.52,6.47-.39,12.74-3.85,14.5-9.9l2.63-8.99,1.49.02c.38,4.94,1.59,9.95,4.96,13.84,2.83,3.26,7.39,3.97,11.48,5.2l1.65.5c.36.11.04,1.39-.15,1.62-4.08.62-9.19,1.74-12.36,4.75h0,0ZM300.08,178.46c-4.69-1.95-8.7-3.82-11.7-7.18l-3.72-7.97c-2.22,8.26-7.19,12.99-15.52,15.09,8.92,1.93,13.61,6.95,15.44,15.18,3.96-9.38,4.51-11.36,15.49-15.12h0,0Z"/><path class="k" d="M84.78,406.91l-.63-.75v-174.59l.63-.75v176.1Z"/><path class="o" d="M239.58,204.73c9.27,17.64,7.14,37.5-3.3,54.36-1.17,1.88-2.4,3.67-4.46,4.77-2.26-1.92-3.41-3.7-4.81-5.99-8.51-14.01-11.1-30.46-5.81-45.95,2.12-6.22,5.18-11.6,10.61-16.05,3.54,2.15,5.92,5.33,7.77,8.87ZM243.61,236.21l.28-8.7c.36-11.13-3.59-21.96-11.47-30.59-3.82,2.99-6.15,6.35-8.04,10.38-8.63,18.35-5.06,39.58,7.56,55.53,5.53-6.19,11.47-20.5,11.67-26.62h0Z"/><path class="k" d="M84.78,486.42l-.63-.79v-67.3l.63-.67v68.76ZM84.78,222.45l-.63-.68v-66.73s.74-.41.74-.41l-.12,67.82h0ZM84.79,501.23c-.18.34-.64-1.05-.64-1.37v-11.56c0-.36.46-1.74.63-1.4v14.32h.01Z"/><path class="w" d="M84.79,141.92l.03,4.97-.61,4.12c-.6,2.28-.68,4.36-.68,7.17v348.72c-1.2,2.88-4.63,4.3-7.14,4.11-2.1-.16-6.62-1.58-6.62-4.71l.31-356.4c.02-19.43,6.61-38.56,14.59-55.85,8.54-18.54,20.91-34.18,35.67-48.3.73-.7,1.1-1.52,1.18-2.36.49,0,1.74-.3,2.19-.66l13.64-10.73c20.07-14.48,43.11-23.99,67.81-28.22l15.33-1.89c8.99-1.11,17.79-1.1,26.78.02l14.73,1.83c69.88,11.64,121.63,64.84,131.15,131.82l1.03,13.04.02,354.25c0,3.57-.61,6.16-3.55,7.45-2.44,1.07-5.84,1.04-8.3-1.01-1.88-1.58-1.88-4.71-1.88-7.64l-.18-354.33c0-13.52-4.22-27-8.73-39.31-18.26-49.84-65.15-85.16-119.85-91.3-24.54-2.75-50.05.2-72.96,9.04-31.82,12.28-58.3,34.42-75.11,62.93-7.97,13.52-13.89,27.35-16.78,42.54l-2.03,10.68h0s0,0,0,0Z"/><path class="n" d="M84.21,151l.61-4.12c0,1.51-.28,2.86-.61,4.12Z"/><path class="q" d="M307.87,412.22c-8.65,15.37-18.42,29.55-30.07,42.88-6.24,7.14-12.87,13.16-20.63,18.6-18.08,12.67-42.04,9.42-57.14-4.96l-13.79-13.14c-20.32-23.44-36.2-49.89-46.18-78.82-6.42-18.6-8.64-37.88-4.66-56.91,1.08-5.15,2.91-9.65,5.1-14.33,5.89-12.65,16.9-21.5,30.96-25.5,9.27-2.64,19.33-1.87,28.86.34,14.81,3.42,29.26,4.79,44.49,3.3l14.27-2.43c10.63-1.81,20.87-3.99,31.58-1.67,12.01,2.6,22.24,9.53,28.93,19.43,4.17,6.17,7.54,12.89,8.76,20.16l1.9,11.29.07,14.98-.67,6.49-2.74,14.09c-4.4,16.29-10.72,31.38-19.04,46.18h0s0,.01,0,.01ZM197.14,328.95l3.58-7.7c1.95-4.19,1.95-8.98-1.12-12.7-1.59-1.92-4.42-3.15-6.9-2.92-1.95.18-4.51,1.68-5.91,3.6-2.49,3.47-2.65,8.47-.68,12.23l4.39,8.4c.48.91,2.83,1.6,3.77,1.31.82-.25,2.44-1.31,2.87-2.23h0s0,0,0,0ZM270.51,331.57c3.07-.76,4.26-4.45,5.43-6.49,1.94-3.37,2.51-6.3,2.74-10.19.3-5-3.72-9.86-9.38-9.1-7.34.99-9.07,10.53-5,18.63,1.25,2.49,2.73,6.7,6.21,7.15ZM308.2,347.7c.3-2.78-1.5-6.23-3.68-7.86-2.58-1.93-5.56-2.02-8.45-.73-10.48,4.64-1.68,24.93,3.97,24.74,3.29-.11,7.48-9.82,8.16-16.15h0ZM164.02,363l2.46-1.68c4.54-7.47,8.49-17.92.41-21.47-4.26-1.87-9.08,1.1-9.75,5.57-.85,5.72,2.07,13.66,6.88,17.59h0ZM230.55,367.3c3.36,2.68,9.19-7.6,9.76-15.88.23-3.38-1.18-6.15-3.9-8.27-2.38-1.86-6.12-1.98-8.99-.36-4.99,2.8-4.54,9.6-2.54,15.68,1.14,3.47,2.35,6.2,5.66,8.84h0ZM195.27,406.56c5.34-5.12,8.31-13.08,6.61-18.96-1.04-3.56-4.58-5.36-8.16-4.77-3.32.54-5.59,3.41-5.74,7.1-.25,6.14,2.07,12.42,7.29,16.63ZM271.13,403.79l3.63-8.26c1.66-3.77.88-8.66-2.25-11.52-2.15-1.96-5.74-1.71-7.99-.36-8.19,4.91-.01,23.05,4.24,22.18.72-.15,1.98-1.19,2.36-2.05h0ZM234.64,446.22l4.33-8.48c1.44-2.83,1.52-6.82.74-9.82-.95-3.69-4.26-5.74-7.84-5.91-3.07-.15-6.49,1.88-7.79,5.26-.73,1.92-.95,5.93-.3,8.05,1.51,4.91,4.77,12.06,8.18,12.28.72.05,2.34-.75,2.67-1.37h0Z"/><path class="m" d="M232.16,160.05l-2.31-10.04-2.52-7.81c-3-9.3-12-16.5-22.02-19.23l-9.38-2.56,8.68-2.52c19.29-5.58,24.01-18.39,27.18-37.24,1.89,2.01,1.13,4.94,1.94,7.39l2.96,9.03c1.88,5.75,5.37,10.8,10.26,14.62,6.23,4.88,13.58,6.36,21.65,8.6-15.98,4.11-25.08,7.55-31.4,22.08-2.41,5.54-3.4,10.99-5.04,17.68h0Z"/><path class="an" d="M210.41,271.19c-6.11.49-11.37-.94-16.99-2.54-12.14-3.47-22.28-11.3-28.49-21.87-2.04-3.47-3.44-6.91-3.86-10.95,27.92-3.57,50.16,10.75,61.32,34.4l-11.98.96h0s0,0,0,0ZM269.28,268.98c-9.02,3.19-18.23,2.94-27.91,1.23,2.88-5.68,6.27-10.65,10.28-15.63l6.16-5.94c9.82-9.48,26.94-14.75,41.41-13.2l2.69.29c2.76.29-3.21,20.66-24.97,30.55l-7.64,2.71h-.01s0,0,0,0ZM300.08,178.46c-10.98,3.76-11.53,5.74-15.49,15.12-1.84-8.21-6.52-13.24-15.44-15.18,8.33-2.11,13.3-6.83,15.52-15.09l3.72,7.97c3,3.35,7.02,5.23,11.7,7.18h0,0Z"/><path class="w" d="M243.61,236.21c-.2,6.12-6.14,20.43-11.67,26.62-12.62-15.94-16.19-37.17-7.56-55.53,1.89-4.04,4.23-7.39,8.04-10.38,7.88,8.63,11.83,19.46,11.47,30.59l-.28,8.7h0s0,0,0,0Z"/><path class="e" d="M197.14,328.95c-.43.91-2.05,1.98-2.87,2.23-.94.29-3.3-.41-3.77-1.31l-4.39-8.4c-1.97-3.76-1.82-8.76.68-12.23,1.39-1.93,3.96-3.42,5.91-3.6,2.48-.23,5.31,1,6.9,2.92,3.07,3.72,3.07,8.51,1.12,12.7l-3.59,7.7h0s0,0,0,0ZM193.59,330.3c4.97-4.75,7.09-10.57,6.82-16.43-.2-4.3-3.73-7.22-7.67-6.92-4.2.33-6.45,4.1-6.28,7.99.13,2.78.39,5.18,1.49,7.62,1.3,2.92,2.56,6.05,5.64,7.73Z"/><path class="ae" d="M308.2,347.7c-.68,6.33-4.87,16.04-8.16,16.15-5.65.19-14.46-20.1-3.97-24.74,2.9-1.28,5.87-1.19,8.45.73,2.18,1.63,3.97,5.07,3.68,7.86h0ZM300.35,362.87c4.5-5.32,6.68-11.17,6.25-17.38-.23-3.3-2.77-5.24-5.62-5.9-2.5-.57-6.41.78-7.38,3.45-1.92,5.23-.43,10.49,2.13,15.12,1.15,2.07,2.17,4.18,4.62,4.71h0Z"/><path class="am" d="M234.64,446.22c-.32.62-1.95,1.42-2.67,1.37-3.4-.22-6.66-7.36-8.18-12.28-.65-2.12-.44-6.12.3-8.05,1.29-3.38,4.71-5.41,7.79-5.26,3.57.17,6.88,2.22,7.84,5.91.78,3,.7,6.99-.74,9.82l-4.33,8.48h0ZM231.7,446.66c4.04-3.48,5.31-7.51,6.82-11.81.67-2.31.62-4.58-.05-6.83-1.01-3.45-3.7-4.78-7.66-4.54-4.23.25-6.45,4.38-6.18,8.58.35,5.45,2.79,10.62,7.07,14.61h0Z"/><path class="e" d="M270.51,331.57c-3.47-.44-4.95-4.65-6.2-7.15-4.07-8.1-2.34-17.64,5-18.63,5.67-.77,9.68,4.1,9.38,9.1-.23,3.9-.81,6.81-2.75,10.19-1.17,2.04-2.36,5.73-5.43,6.49ZM271.4,329.81c3.32-4.03,5.23-8.64,5.97-13.58.69-4.61-1.96-9.29-7.01-9.36-4.57-.06-7.54,4.4-7.06,8.73.94,8.45,6.09,16.64,8.09,14.21h0Z"/><path class="b" d="M230.55,367.3c-3.32-2.64-4.53-5.37-5.66-8.84-2-6.09-2.45-12.88,2.54-15.68,2.87-1.61,6.61-1.49,8.99.36,2.72,2.12,4.13,4.89,3.9,8.27-.57,8.27-6.4,18.56-9.76,15.88h0ZM232.64,366.69c7.03-8.38,9.52-21.48.99-23.53-3.33-.8-6.89.37-8.16,3.48-2.03,4.97-.41,10.11,1.9,14.72,1.13,2.26,2.31,4.13,5.27,5.32h0Z"/><path class="y" d="M99.25,556.13H2.39l-.39.53,97.8.02c.25,8.56-.21,16.56.54,24.57.19,1.58-5.09,2.12-5.9.62l-3.44-6.42c-3.67-6.84-11.53-10.55-20.39-11.5-5.61-.6-11.53-.74-17.31-.41l-9.96.57c-.96.05-2.29,1.4-3.21,2.2v38.08s1.36,2.21,1.36,2.21l22.37-.17c2.9-.02,7.06-1.84,8.58-3.57,3.94-4.52,3.17-7.93,6.16-8.87,1.31-.41,3.39.16,4.68,1.09v31.01c-1.45,1.06-5.31,1.82-6.26.45-1.7-2.43-2.22-5.05-4.35-7.38-1.68-1.82-5.9-3.42-8.66-3.44l-.67-.65c.37-.14-1.17-.53-1.52-.53h-18.29c-.33,0-1.88.39-1.5.54l.09.6-2,1.61-.14,33.36.68,1.05c-.02,10.41,13.04,7.41,14.1,10.91.37,1.23-.18,3.92-2.28,3.92l-49.65.03c-1.64,0-3.16-2.36-2.75-3.3,2.08-4.73,14.01-1.21,14.01-11.61v-81.13c0-10.3-11.96-7.28-13.82-11.2-.47-1,.19-2.81,1.39-3.72h96.82s.78.52.78.52h0ZM16.04,567.82h-1.33v83.37h1.33v-83.37ZM14.97,653.4c-.07-.58-.09-.79-.03-.23.16,1.38.17,1.47.03.23Z"/><path class="al" d="M422.81,667.14c-14.29,1.12-25.79-4.25-27.5-15.37-2.54-16.62,13.92-22.82,32-26.6l16.79-3.52-.21-12.37c-.09-5.66-6.29-9.61-13.16-9.7-3.45-.05-6.94,1.04-8.97,2.76-5.9,4.99-.47,9.73-5.32,13.85-2.8,2.38-11.64,3.16-15.33.48-4.43-3.23-2.69-10.6,2.98-15.51,10.22-8.85,32.07-10.46,46.47-6.21,7.49,2.2,13.7,7.06,14.6,13.24l.78,5.38.12,39.85,2.92,2.65c1.36,1.24,5.6-2.19,8.63-.81.99,2.1-.01,5.12-1.68,6.97-3.88,3.01-8.59,4.59-13.86,4.98-8.09.59-14.82-2.92-16.45-9.48-6.59,5.21-14.12,8.74-22.8,9.42h-.01ZM433.99,655.65c4.79-.99,8.37-3.19,10.04-6.63l-.02-20.28-13.96,3.35c-5.18,1.24-9.91,4.55-11.91,8.36-2.37,4.52-2.1,8.91,1.58,12.7,3.21,3.31,9.09,4.21,14.27,2.51h0Z"/><path class="v" d="M260.52,626.54l-52.66-.32.49.55-.15.54c-3.95,1-.88,10.33,1.86,15.07,4.87,8.42,15.12,13.36,26.69,12.37,15.3-1.32,19.14-9.26,22.36-8.72,6.32,1.06-3.99,17.93-23.04,20.39l-7,.91c-2.55.33-4.97.28-7.55.03-23.34-2.25-35.81-14.81-38.02-33.1-.31-2.61-.51-4.98-.02-7.54l1.18-6.12c1.46-7.6,6.24-14.44,13.32-19.58,8.31-6.04,18.6-8.58,29.69-8.34,13.21.28,24.99,5.5,30.36,15.19,2.7,5.78,4.01,11.66,3.62,17.81l-1.14.88h.01ZM237.44,620.41c1.4,0,3.05-1.11,3.01-2.09-.21-5.15-1.29-10.18-4.9-14.16-4.95-5.46-13.46-6.06-19.97-1.77-4.91,3.24-10.2,12.72-8.06,17.97l29.92.04h0Z"/><path class="al" d="M309.31,667l-14.69-.15c-5.99-.06-11.1-1.65-16.88-3.11-1.12-.29-2.08-2.51-2.17-3.46l-.43-4.36-.21-10.12c-.02-.89,1.61-2.28,2.57-2.55,4.67-1.29,4.87,5.49,10.16,10.89,4.35,4.43,9.86,6.29,16.57,6.21,5.46-.06,10.24-1.48,12.47-5.41,1.98-3.48,1.71-7.75-2.25-11.07-3.64-3.05-9.27-4.6-14.14-6.54l-10.27-4.09c-3.65-1.45-7.29-3.77-9.82-6.42-7.59-8-6.84-19,1.44-26.69,11.05-10.26,33.11-8.25,49-3.5l.55,8.71.13,8.5c.01.94-3.09,1.6-4.09,1.35-3.71-.92-3.64-7.61-12.99-13.41-4.94-3.06-14.23-3.07-18.46.55-2.3,1.98-3.57,4.95-2.78,8.21s5.21,6.22,9.24,7.68l9.14,3.32c11.17,4.05,22.94,9.4,24.38,19.55,1.1,7.73-.91,15.14-8.45,20.12-4.88,3.22-11.15,5.89-18.02,5.82h-.01Z"/><path class="p" d="M384.76,666.2c-.83.2-2.35.41-3.27.41v-1.59l2.26-.05c.5,0,.95.5,1.01,1.23h0Z"/><path class="p" d="M372.46,593.36l1.85,1.5c-1.5,1.49-3.73,3.6-3.85,5.05-.18,2.16,3.02,2.79,4.99,2.22l.09,51.61c0,1.65.59,2.96-.5,4.48-.53.74-.15,2.73.7,3.12,2.67,1.24,5.52-.68,6.3.18,1.25,1.39-.46,2.26-.56,3.49l-12.49-.03-12.3-.28c.69-3.41-.35-5.2-3-6.58.37-1.04,1.11-3.03,1.11-4.35l-.03-44.37c0-3.29-3.43-5.44-7.18-5.6-1.27-.05-2.85-1.21-3.24-1.98s.11-2.99,1.01-3.46l19.4-4.13,4.71.36c.34,0,1.44-.18,1.56-.36l.44-.9.99.02v.02ZM356.16,609.77h-.67v45.13h.67v-45.13Z"/><path class="v" d="M138.03,593.8c1.2,4.49.97,9.61.29,14.23,5.8,6.81.31,11.14.29,15.39l-.06,16.44c-1.88,1.19-2.74,2.92-2.79,4.9l-.14,5.13c-.05,1.99-2.29,2.38-4.28,2.64-1.6.78-.87,4.5,1.9,4.62l4.78-4.22c3.03,3.57,3.08,7.59,2.11,11.91l-14.35.13-7.78-.25,1.85-3.37c.31-.57,1.05-1.89.63-2.28l-1.76-1.6c.88-2.76.7-5.59.71-8.53l.03-13.62.08-8.56.39-5.29-.71-12.81c-.03-.59-1.42-1.72-1.9-1.72l-.77-.46.96-.17c.25-.08-.26-1.4-.51-1.49l-7.33-2.71-1.5-.69c-.14-.06-.19.08-.49.42-.27-.67-.51-2.06-.25-2.73s1.98-1.51,2.91-1.69l14.38-2.69,6.91,2.06c1.6.4,4.71-1.83,5.3-2.81l1.1-.19h.01Z"/><path class="v" d="M148.6,608.18c-2.55-.01-6.82-.12-7.59-2.7l2.52-3.36c5.38-6.73,14.69-10.6,24.65-9.12,4.39.65,7.81,2.87,9.17,5.38,1.93,3.56,1.6,6.71-.73,10.07-2.02,2.9-7.25,4.83-11.51,3.46-2.7-.87-4.59-3.23-6.89-4.63-2.7-1.65-7.45-.86-9.61.9Z"/><path class="j" d="M141.01,605.48c.78,2.58,5.05,2.69,7.59,2.7-4.12,3.36-7.85,7.68-7.86,12.94l-.07,34.76c0,4.1,9.86,4.85,10.52,5.88l-.65,1.92c-.11.35,1.88.28,2.08.29l-2.76,2.88-.35-1.85c-.06-.42-2.27-.14-2.3.29l-.03,1.29h-33.29c.26-.46-1.01-1.14-1.62-1.15-.49,0-1.13.74-1.05,1.17-.92,0-2.64-.39-3.35-.82-.61-.38-.79-1.84-.65-2.45.87.73,2.83,1.16,3.89.89l2.12-.53c.42-.11.08-1.42-.36-1.48l-1.77-.2c-.44-.05-1.28.5-1.58.76-.24.21-.96-.85-1.04-1.01,2.76-1.69,9.3-1.4,9.34-6.5l.11-14.15c.29.02.63-.54.63-.81s-.33-.82-.63-.8v-2.65l.67-1.03v-20.78l-.65-1.04-.59-7.06c.48,0,1.87,1.12,1.9,1.72l.71,12.81-.39,5.29-.08,8.56-.03,13.62c0,2.94.17,5.78-.71,8.53l1.76,1.6c.43.38-.32,1.71-.63,2.28l-1.85,3.37,7.78.25,14.35-.13c.97-4.32.92-8.34-2.11-11.91l-4.78,4.22c-2.78-.13-3.5-3.85-1.9-4.62,1.99-.26,4.23-.65,4.28-2.64l.14-5.13c.05-1.98.91-3.7,2.79-4.9l.06-16.44c.01-4.25,5.51-8.58-.29-15.39.67-4.62.91-9.73-.29-14.23,4.26-1.06,1.33,6.2,2.98,11.67h-.03ZM149.64,663.06c0-.56-.57-1.01-1.27-1.01s-1.27.45-1.27,1.01.57,1.01,1.27,1.01,1.27-.45,1.27-1.01Z"/><ellipse class="d" cx="364.7" cy="572.71" rx="12.63" ry="10.08"/><path class="ap" d="M243.84,577.52c-7,4.42-21.78,9.47-24.74,6.98-.76-.64-.73-2.53.09-3.2l10.92-8.93,4.72-4.22c1.44-1.28,3.51-2.42,5.18-2.54,2.48-.18,5.13.42,6.42,2.09,2.56,3.29,1.1,7.48-2.6,9.82h.01Z"/><path class="g" d="M286.16,695.77l-.9,15.44c-1.92.28-3.56-.57-4.69-1.78l-6.86-7.36-.12,9.12-4.63-.1.04-15.13c.52-.55,2.78-1.07,3.43-.7.55.31,1.24.93,1.84,1.56l7.26,7.46.14-7.38c.01-.54.98-1.92,1.6-1.78l2.88.63h0Z"/><path class="g" d="M395.28,696.49l.33.61,3.13-.83.03,13.85.67.53-.28.55-3.67-.04-.13-7.99-3.78,5.07c-.41.54-2.5-.03-2.89-.57l-3.59-5.04-.43,8.58-3.88-.11.05-15.18c.63-.62,3.2-.98,3.88-.48.58.42,1.28,1.38,1.78,2.08l3.9,5.39,2.86-3.57,2.04-2.85h0Z"/><path class="u" d="M260.17,705.99c-1.01,3.95-5.36,5.28-9.5,5.59-4.52.33-8.34-2.46-9.74-5.46-1.66-3.58.11-7.01,4.05-9.47,5.01-3.13,13.13-1.14,15.23,4.03.26,1.18.29,4-.04,5.31ZM253.7,699.44c-2.22-1.26-6.26-.52-7.48,1.15-1.54,2.1-1.85,4.24.28,6,1.71,1.41,4.75,2.15,7.21.84,3.42-1.81,3.47-6,0-7.99Z"/><path class="d" d="M102.09,710.9c-8,2.11-6.23-5.37-11.62-4.97-.46,1.19-.55,2.97-.61,5.09l-3.85.13-.31-8.95c-.09-2.5-.59-4.34.29-7.03l9.12.23c2.6.06,5.62,2.26,6.06,3.89.65,2.42-.33,4.77-3.37,6.15l4.29,5.45h0ZM96.09,702.15c.89-.26.55-3.03-.31-3.06l-5.84-.18.03,3.86c1.86-.02,4.61-.18,6.12-.62h0Z"/><path class="r" d="M344.24,695.77c1.2,0,3.27.67,4.13,1.34,1.86,1.48,2.41,7.34-1.98,8.19l4.32,5.7c-1.9.13-3.98.15-5.3-.07l-3.95-4.96-2.59-.09v5.32l-4.67-.05v-14.83l.67-.53v14.6l.61.3.09-14.36,7.15-.02c.35,0,1.81-.38,1.52-.54h0ZM344.51,702.67l1.03-2.19c.17-.37-1.2-1.37-1.71-1.39l-5.58-.18-.09,3.8,6.35-.04h0Z"/><path class="ah" d="M122.46,704.77l-7.81.12c-.57.44-.84,2.25-.79,3.09l10.04.04-.28,3.22-13.76-.11.11-15.82,13.07-.03c.96.4,1.22,3.05.25,3.22l-9.31.56-.1,2.58h8.66l-.08,3.15h0Z"/><path class="t" d="M421.13,708.67c-.84-1.18-7.61-.83-8.13-.21-.45.54-.76,1.48-1.21,2.72l-4.6-.08,7.16-14.1c.51-1,1.41-1.84,2.78-1.91,1.06-.06,2.48,1.23,2.98,2.22l6.82,13.59-3.67.24c-.82.05-1.34-1.35-2.14-2.48h0Z"/><path class="ac" d="M384.05,660.75l.84.45c.42.17,1.21.67,1.36,1.08l-.81,1.39c-.11.24,1.26.3,1.41.23.14.38.06,1.44-.38,1.61l-1.7.68c-.06-.73-.51-1.23-1.01-1.23l-2.27.05c.1-1.24,1.81-2.11.56-3.49-.77-.85-3.63,1.06-6.3-.18-.85-.39-1.22-2.39-.7-3.12,1.09-1.51.5-2.83.5-4.48l-.09-51.61c-1.98.57-5.17-.06-4.99-2.22.12-1.45,2.35-3.57,3.85-5.05l-1.85-1.5c.77.02,2.4.23,3.07.59s1.28,1.68,1.28,2.54l-.03,58.49c0,3.05,4.03,5.34,7.28,5.76h-.01Z"/><path class="ac" d="M381.48,665.02v1.59l-35.16-.08c-1.34,0-2.54-2.43-2.14-3.28,1.53-3.21,5.52-1.91,9.5-5.11,2.65,1.39,3.69,3.17,3,6.58l12.3.28,12.49.03h0ZM348.63,664.64c.82,0,1.35-2.06.73-2.33-.49-.22-1.51-.3-2.38-.16-1.03.16.05,2.47,1.65,2.49h0Z"/><path class="z" d="M191.16,710.91c-5,1.53-10.41.18-11.52-2.12-.37-.78,1.63-2.44,2.52-2.03,2.62,1.21,5.09,1.96,7.39.75.35-.19.3-1.43-.09-1.55l-5.74-1.65c-1.8-.52-3.55-1.96-3.85-3.08-.5-1.81.36-3.68,2.06-4.71,3.13-1.89,7.29-1.61,10.29-.06.69.36,1.1,1.94.7,2.44-1.92,2.42-6.01-2.12-8.88,1.41,4.1,2.22,9.76,1.64,10.39,5.36.37,2.18-.45,4.39-3.28,5.25h.01Z"/><path class="h" d="M159.96,707.93c-.92.57-1.88,2.06-2.5,3.21l-4.53-.04,7.49-14.3c.33-.62,1.69-1.5,2.44-1.63s2.44.71,2.76,1.35l7.16,14.26c-.85.3-2.86.53-3.84.37-.93-.15-1.3-1.48-1.78-3.01l-7.2-.2h0ZM165.06,704.28l-1.91-3.71-2.19,4.19c1.28.03,3.39-.16,4.09-.48h0Z"/><path class="g" d="M140.28,711.52c-3.18.33-6.18-.63-8.84-2.45l2.68-2.59c2.13,1.02,4.32,1.65,6.25,1.6.52-.02,1.9-1.12,1.64-1.47s-1.01-.76-1.79-1.02l-6.55-2.19c-.95-.31-1.87-2.51-1.71-3.33.35-1.81,2.47-3.9,4.21-4.46,4.57-1.48,10.08,1.48,9.76,1.99l-1.4,2.25c-.56.89-5.48-2.79-7.83-.08,1.6,3.41,9.9.97,9.9,6.92,0,2.78-2.14,4.41-6.32,4.85h0Z"/><path class="aj" d="M219.87,704.15c.86,1.82,2.28,3.1,3.5,3.55,3.86,1.42,6.52-1.66,8.28-.93.73.3,1.73,1.51,1.51,2.07-.69,1.77-6.5,3.76-11.94,2.06-2.78-.87-5.09-3.18-5.56-6.03-.65-3.9,1.49-7.09,5.48-8.83s8.78-.95,12.17,1.9l-2.59,2.6c-1.89-1.74-5.52-1.98-7.4-1.3-1.74.63-4.2,3.33-3.46,4.91h0Z"/><path class="h" d="M314.4,700.3c-1.8,2.13-2.19,4.5-.51,6.07,1.68,1.57,4.97,2.52,7.56.9,1.26-.79,4.75-.17,4.49,1.15-.49,2.46-4.25,2.75-6.78,3.04-4.77.56-8.65-2.08-10.18-5-1.94-3.69.03-7.31,3.22-9.46,3.79-2.55,9.34-2.4,12.85.2.51.38.42,1.75-.01,2.12-2.14,1.83-7.72-2.48-10.64.98Z"/><path class="d" d="M372.28,696.6c.01.52-.85,1.82-1.52,1.82l-7.28.08c-.55.7-.75,2.61-.46,3.13h7.78l-.1,3.13-7.04.17c-.8.18-1.02,2.35-.82,3.04l9.27.04-.03,3.16-13.06.05.45-14.9,12.79.28h0Z"/><path class="al" d="M67.98,699v2.61l6.1.03c.68,0,2.01.49,2.48.88s-.02,2.37-.69,2.42l-7.83.5-.12,5.71c-1.32.1-3.32.15-3.95-.42l.68-.61-.02-13.8h11.93v1.59s-8.51,0-8.51,0l-.07,1.09h0Z"/><path class="x" d="M99.25,556.13c.37.08.89.19,1.1.39l.72.7-.73,24.02c-.74-8.01-.29-16-.54-24.57l-97.8-.02.39-.52h96.86Z"/><path class="y" d="M455.44,704.74c-.15,1.77-2.61,2.52-4.62,2.57-1.39.03-3.39-1.35-3.89-2.49-.7-1.61.35-3.36,2.45-4.37,1.04-.5,3.29-.38,4.27.12,1.42.72,1.96,2.08,1.78,4.17h0Z"/><path class="p" d="M36.04,700.31c2.46-.9,5.58.38,5.91,2.09.36,1.9-.23,3.99-2.86,4.62-1.97.47-4.29-.11-5.4-1.74s-.11-4.06,2.35-4.96h0Z"/><path class="ao" d="M67.98,699l.07-1.09h8.52v-1.6h-11.93l.02,13.8-.68.61c-1.51-1.4.67-3.53-.46-8.72-.47-2.2.03-4.78.72-6.77l13.09.04-.28,3.64-9.06.1h0Z"/><path class="ao" d="M372.28,696.6l-12.79-.28-.45,14.9-.95-.97.16-14.92,11.91-.12c.47,0,1.57.15,1.95.24.25.06.17.81.18,1.14h0Z"/><path class="j" d="M136.94,593.99c-.6.98-3.7,3.21-5.3,2.81l-6.91-2.06,11.51-2.03c.36-.06,1.14,1.18.71,1.28h0Z"/><polygon class="i" points="260.52 626.54 208.21 627.31 208.36 626.76 260.52 626.54"/><path class="ab" d="M40.14,604.39v-38.08s0,38.08,0,38.08Z"/><polygon class="ab" points="40.63 651.69 39.95 650.64 40.1 617.29 40.63 651.69"/><path class="aa" d="M100.33,581.25l.73-24.02c.19,7.87.53,16.01-.73,24.02Z"/><polygon class="v" points="117.87 636.85 117.91 614 118.56 615.04 118.56 635.82 117.87 636.85"/><path class="x" d="M400.11,696.31l-.7.55v13.8l-.66-.53-.03-13.85-3.13.83-.33-.61c.39-.54,1.68-1.38,2.43-1.38s2.23.79,2.41,1.19h0Z"/><path class="x" d="M344.24,695.77c.29.17-1.18.54-1.52.54l-7.15.02-.09,14.36-.62-.3v-14.6l9.38-.02h0Z"/><path class="j" d="M116.56,606.49c-2.62-3.53-7.61-1.6-8.87-4.64.3-.33.35-.48.49-.42l1.5.69,7.33,2.71c.24.09.76,1.4.51,1.49l-.96.17h0Z"/><polygon class="aa" points="63.31 615.07 63.99 615.72 42.09 615.68 41.99 615.08 63.31 615.07"/><path class="v" d="M107.2,663.32c.11-.48.75-1.26,1.24-1.57.09.15.81,1.22,1.04,1.01.31-.26,1.14-.81,1.58-.76l1.77.2c.43.05.77,1.37.36,1.48l-2.12.53c-1.06.27-3.02-.16-3.89-.89h0Z"/><polygon class="ak" points="285.26 711.21 286.16 695.77 286.34 711.05 285.26 711.21"/><path class="ak" d="M399.15,711.2l.28-.55v-13.8l.69-.55v14.46s-.78.43-.97.43h0Z"/><path class="ac" d="M371.47,593.35l-.44.9c-.13.18-1.22.35-1.56.36l-4.71-.36,3.35-.53,1.38-.4,1.98.03Z"/><path class="v" d="M149.86,666.85l-2.69-.27.03-1.29c.03-.43,2.24-.72,2.3-.29l.35,1.85h0Z"/><path class="v" d="M113.89,666.59h-2.68c-.07-.42.56-1.17,1.05-1.16.62.01,1.88.69,1.62,1.16h0Z"/><path class="v" d="M152.62,663.97c-.21-.02-2.19.06-2.08-.29l.65-1.92,1.42,2.21h0Z"/><path class="p" d="M386.85,663.9c-.15.06-1.52.01-1.41-.23l.81-1.39.6,1.62Z"/><path class="v" d="M117.89,641.11v-1.6c.29-.03.63.53.63.8s-.33.82-.63.81Z"/><path class="p" d="M369.49,593.32l-1.38.4c.17-.14.97-.41,1.38-.4Z"/><path class="p" d="M384.89,661.2l-.84-.45.84.45Z"/><rect class="s" x="14.71" y="567.82" width="1.33" height="83.37"/><path class="x" d="M63.31,615.07h-21.31c-.38-.14,1.17-.53,1.5-.53h18.29c.35,0,1.88.39,1.52.53h0Z"/><path class="s" d="M14.94,653.18c.16,1.38.17,1.47.03.23-.07-.58-.09-.79-.03-.23Z"/><polygon class="f" points="260.52 626.54 208.36 626.76 207.86 626.22 260.52 626.54"/><rect class="x" x="355.5" y="609.77" width=".67" height="45.13"/><ellipse class="v" cx="148.36" cy="663.06" rx="1.27" ry="1.01"/><path class="p" d="M348.63,664.64c-1.6-.02-2.67-2.33-1.65-2.49.87-.14,1.89-.06,2.38.16.62.27.09,2.34-.73,2.33h0Z"/></svg>